<svg width="222" height="247" viewBox="0 0 222 247" fill="none" xmlns="http://www.w3.org/2000/svg">
<path d="M49.832 234C49.5653 234 49.432 233.867 49.432 233.6V217.6H46.936C46.6693 217.6 46.536 217.467 46.536 217.2V213.072C46.536 212.805 46.6693 212.672 46.936 212.672H57.704C57.9707 212.672 58.104 212.805 58.104 213.072V217.2C58.104 217.467 57.9707 217.6 57.704 217.6H55.192V233.6C55.192 233.867 55.0587 234 54.792 234H49.832ZM61.561 234C61.2943 234 61.161 233.867 61.161 233.6V216.8C61.161 216.533 61.2943 216.4 61.561 216.4H64.521C64.713 216.4 64.889 216.491 65.049 216.672L66.361 218.16L67.865 216.592C67.993 216.464 68.1477 216.4 68.329 216.4H69.897C70.1637 216.4 70.297 216.533 70.297 216.8V220.864C70.297 221.035 70.281 221.152 70.249 221.216C70.2277 221.269 70.169 221.328 70.073 221.392L66.473 224V233.6C66.473 233.867 66.3397 234 66.073 234H61.561ZM72.2798 234C72.0131 234 71.8798 233.867 71.8798 233.6V216.8C71.8798 216.533 72.0131 216.4 72.2798 216.4H76.7758C77.0424 216.4 77.1758 216.533 77.1758 216.8V233.6C77.1758 233.867 77.0424 234 76.7758 234H72.2798ZM72.1998 215.072C71.9864 215.072 71.8798 214.965 71.8798 214.752V212.72C71.8798 212.507 71.9864 212.4 72.1998 212.4H76.8878C77.0798 212.4 77.1758 212.507 77.1758 212.72V214.752C77.1758 214.965 77.0798 215.072 76.8878 215.072H72.1998ZM80.561 238.8C80.2943 238.8 80.161 238.667 80.161 238.4V216.8C80.161 216.533 80.2943 216.4 80.561 216.4H84.129C84.321 216.4 84.5023 216.491 84.673 216.672L85.473 217.472L86.273 216.672C86.4437 216.491 86.657 216.4 86.913 216.4H89.121C89.3663 216.4 89.5797 216.491 89.761 216.672L92.961 219.872C93.1317 220.043 93.217 220.256 93.217 220.512V229.888C93.217 230.144 93.1317 230.357 92.961 230.528L89.761 233.728C89.5797 233.909 89.3663 234 89.121 234H86.913C86.657 234 86.4437 233.909 86.273 233.728L85.473 232.928V238.4C85.473 238.667 85.3397 238.8 85.073 238.8H80.561ZM85.473 229.776H87.073C87.3823 229.776 87.5957 229.712 87.713 229.584C87.841 229.445 87.905 229.221 87.905 228.912V221.488C87.905 221.179 87.8463 220.96 87.729 220.832C87.6117 220.693 87.3983 220.624 87.089 220.624H86.289C85.9903 220.624 85.777 220.693 85.649 220.832C85.5317 220.96 85.473 221.179 85.473 221.488V229.776ZM96.6235 234C96.3568 234 96.2235 233.867 96.2235 233.6V216.4C96.2235 216.155 96.3088 215.941 96.4795 215.76L99.3115 212.928C99.4928 212.757 99.7062 212.672 99.9515 212.672H103.568C103.824 212.672 104.037 212.757 104.208 212.928L106.912 215.632H107.648L110.352 212.928C110.522 212.757 110.736 212.672 110.992 212.672H114.592C114.848 212.672 115.061 212.757 115.232 212.928L118.064 215.76C118.245 215.941 118.336 216.155 118.336 216.4V233.6C118.336 233.867 118.202 234 117.936 234H112.992C112.725 234 112.592 233.867 112.592 233.6V218H110.144V233.6C110.144 233.867 110.01 234 109.744 234H104.816C104.549 234 104.416 233.867 104.416 233.6V218H101.968V233.6C101.968 233.867 101.834 234 101.568 234H96.6235ZM125.443 234C125.198 234 124.984 233.909 124.803 233.728L121.603 230.528C121.422 230.357 121.331 230.144 121.331 229.888V220.512C121.331 220.256 121.422 220.043 121.603 219.872L124.803 216.672C124.984 216.491 125.198 216.4 125.443 216.4H134.003C134.27 216.4 134.403 216.533 134.403 216.8V233.6C134.403 233.867 134.27 234 134.003 234H130.451C130.312 234 130.2 233.979 130.115 233.936C130.04 233.883 129.96 233.813 129.875 233.728L129.075 232.928L128.275 233.728C128.104 233.909 127.891 234 127.635 234H125.443ZM127.475 229.776H128.259C128.568 229.776 128.782 229.712 128.899 229.584C129.016 229.445 129.075 229.221 129.075 228.912V220.624H127.491C127.182 220.624 126.963 220.693 126.835 220.832C126.707 220.96 126.643 221.179 126.643 221.488V228.912C126.643 229.221 126.702 229.445 126.819 229.584C126.947 229.712 127.166 229.776 127.475 229.776ZM146.084 234C145.966 234 145.865 233.984 145.78 233.952C145.694 233.909 145.636 233.845 145.604 233.76L143.764 226.928H142.692V222.256H143.764L145.604 216.656C145.636 216.571 145.694 216.512 145.78 216.48C145.865 216.437 145.966 216.416 146.084 216.416H150.388C150.654 216.416 150.788 216.549 150.788 216.816V218.704C150.788 218.843 150.777 218.955 150.756 219.04C150.734 219.125 150.702 219.216 150.66 219.312L148.196 224.608V225.152L150.74 231.12C150.793 231.227 150.83 231.328 150.852 231.424C150.873 231.509 150.884 231.611 150.884 231.728V233.6C150.884 233.867 150.75 234 150.484 234H146.084ZM137.78 234C137.513 234 137.38 233.867 137.38 233.6V213.072C137.38 212.805 137.513 212.672 137.78 212.672H142.292C142.558 212.672 142.692 212.805 142.692 213.072V233.6C142.692 233.867 142.558 234 142.292 234H137.78ZM153.53 234C153.263 234 153.13 233.867 153.13 233.6V216.8C153.13 216.533 153.263 216.4 153.53 216.4H158.026C158.292 216.4 158.426 216.533 158.426 216.8V233.6C158.426 233.867 158.292 234 158.026 234H153.53ZM153.45 215.072C153.236 215.072 153.13 214.965 153.13 214.752V212.72C153.13 212.507 153.236 212.4 153.45 212.4H158.138C158.33 212.4 158.426 212.507 158.426 212.72V214.752C158.426 214.965 158.33 215.072 158.138 215.072H153.45ZM161.811 234C161.544 234 161.411 233.867 161.411 233.6V216.8C161.411 216.533 161.544 216.4 161.811 216.4H170.371C170.616 216.4 170.83 216.491 171.011 216.672L174.211 219.872C174.382 220.043 174.467 220.256 174.467 220.512V233.6C174.467 233.867 174.334 234 174.067 234H169.555C169.288 234 169.155 233.867 169.155 233.6V221.696C169.155 221.216 168.915 220.976 168.435 220.976H166.723V233.6C166.723 233.867 166.59 234 166.323 234H161.811Z" fill="#545F4E"/>
<g clip-path="url(#clip0_4_20)">
<path d="M148.5 148.5C139.338 143.388 125.933 140.167 111 140.167C96.0667 140.167 82.6625 143.388 73.5 148.5M100.583 87.875C93.6375 86.4792 81.8333 87.875 75.5833 100.513M100.583 87.875C111 85.7833 123.5 92.1333 123.5 108.908M100.583 87.875C96.4167 79.475 88.0833 73.2542 73.5 81.6375M100.583 87.8792C104.75 89.9792 108.917 96.325 108.917 111M100.583 88.0833C96.4167 95.7208 88.0833 117.25 88.0833 142.25" stroke="#545F4E" stroke-width="5" stroke-linecap="round" stroke-linejoin="round"/>
<path d="M141.618 174.825C132.738 184.075 122.562 193.602 111 203.5C61.6975 161.412 37 125.06 37 94.35C37 48.285 72.15 18.5 111 18.5C148 18.5 181.67 45.51 184.722 87.875H217.375L175.75 129.5L134.125 87.875H166.222C163.262 57.72 139.952 37 111 37C80.0125 37 55.5 60.7725 55.5 94.35C55.5 115.995 73.5375 144.67 111 178.895C116.92 173.438 122.378 168.165 127.373 163.077C125.745 159.866 124.89 156.318 124.875 152.717C124.875 146.584 127.311 140.702 131.648 136.366C135.985 132.029 141.867 129.592 148 129.592C154.133 129.592 160.015 132.029 164.352 136.366C168.689 140.702 171.125 146.584 171.125 152.717C171.122 156.294 170.286 159.822 168.684 163.02C167.082 166.218 164.758 169 161.895 171.144C159.033 173.289 155.71 174.738 152.191 175.377C148.671 176.016 145.051 175.827 141.618 174.825Z" fill="#8DA581"/>
</g>
<defs>
<clipPath id="clip0_4_20">
<rect width="222" height="222" fill="white"/>
</clipPath>
</defs>
</svg>
